HIERARCHY
ROOT Hips
{
    OFFSET 0.000000 83.639999 0.000000
    CHANNELS 6 Xposition Yposition Zposition Yrotation Xrotation Zrotation
    JOINT RightUpLeg
    {
        OFFSET -10.500000 -0.000000 0.000000
        CHANNELS 3 Yrotation Xrotation Zrotation
        JOINT RightLeg
        {
            OFFSET 0.000000 -39.400002 0.000000
            CHANNELS 3 Yrotation Xrotation Zrotation
            JOINT RightFoot
            {
                OFFSET 0.000000 -37.320000 0.000000
                CHANNELS 3 Yrotation Xrotation Zrotation
                End Site
                {
                    OFFSET 0.000000 -6.920000 12.600000
                }
            }
        }
    }
    JOINT LeftUpLeg
    {
        OFFSET 10.500000 -0.000000 0.000000
        CHANNELS 3 Yrotation Xrotation Zrotation
        JOINT LeftLeg
        {
            OFFSET 0.000000 -39.400002 0.000000
            CHANNELS 3 Yrotation Xrotation Zrotation
            JOINT LeftFoot
            {
                OFFSET 0.000000 -37.320000 0.000000
                CHANNELS 3 Yrotation Xrotation Zrotation
                End Site
                {
                    OFFSET 0.000000 -6.920000 12.600000
                }
            }
        }
    }
    JOINT Spine
    {
        OFFSET 0.000000 7.549000 0.000000
        CHANNELS 3 Yrotation Xrotation Zrotation
        JOINT Spine1
        {
            OFFSET 0.000000 16.715000 0.000000
            CHANNELS 3 Yrotation Xrotation Zrotation
            JOINT Spine2
            {
                OFFSET 0.000000 11.862000 0.000000
                CHANNELS 3 Yrotation Xrotation Zrotation
                JOINT Neck
                {
                    OFFSET 0.000000 17.794001 0.000000
                    CHANNELS 3 Yrotation Xrotation Zrotation
                    JOINT Neck1
                    {
                        OFFSET 0.000000 4.145000 0.000000
                        CHANNELS 3 Yrotation Xrotation Zrotation
                        JOINT Head
                        {
                            OFFSET 0.000000 4.145000 0.000000
                            CHANNELS 3 Yrotation Xrotation Zrotation
                            End Site
                            {
                                OFFSET 0.000000 16.070000 0.000000
                            }
                        }
                    }
                }
                JOINT RightShoulder
                {
                    OFFSET -2.696000 12.402000 0.000000
                    CHANNELS 3 Yrotation Xrotation Zrotation
                    JOINT RightArm
                    {
                        OFFSET -12.804000 0.000000 0.000000
                        CHANNELS 3 Yrotation Xrotation Zrotation
                        JOINT RightForeArm
                        {
                            OFFSET -21.000000 0.000000 0.000000
                            CHANNELS 3 Yrotation Xrotation Zrotation
                            JOINT RightHand
                            {
                                OFFSET -23.000000 0.000000 0.000000
                                CHANNELS 3 Yrotation Xrotation Zrotation
                                JOINT RightHandThumb1
                                {
                                    OFFSET -1.737000 -0.434000 2.258000
                                    CHANNELS 3 Yrotation Xrotation Zrotation
                                    JOINT RightHandThumb2
                                    {
                                        OFFSET -3.472000 0.000000 0.000000
                                        CHANNELS 3 Yrotation Xrotation Zrotation
                                        JOINT RightHandThumb3
                                        {
                                            OFFSET -2.412000 0.000000 0.000000
                                            CHANNELS 3 Yrotation Xrotation Zrotation
                                            End Site
                                            {
                                                OFFSET -2.275000 0.000000 0.000000
                                            }
                                        }
                                    }
                                }
                                JOINT RightInHandIndex
                                {
                                    OFFSET -3.039000 0.479000 1.865000
                                    CHANNELS 3 Yrotation Xrotation Zrotation
                                    JOINT RightHandIndex1
                                    {
                                        OFFSET -4.919000 -0.086000 0.942000
                                        CHANNELS 3 Yrotation Xrotation Zrotation
                                        JOINT RightHandIndex2
                                        {
                                            OFFSET -3.413000 0.000000 0.000000
                                            CHANNELS 3 Yrotation Xrotation Zrotation
                                            JOINT RightHandIndex3
                                            {
                                                OFFSET -1.935000 0.000000 0.000000
                                                CHANNELS 3 Yrotation Xrotation Zrotation
                                                End Site
                                                {
                                                    OFFSET -1.702000 0.000000 0.000000
                                                }
                                            }
                                        }
                                    }
                                }
                                JOINT RightInHandMiddle
                                {
                                    OFFSET -3.189000 0.488000 0.714000
                                    CHANNELS 3 Yrotation Xrotation Zrotation
                                    JOINT RightHandMiddle1
                                    {
                                        OFFSET -4.879000 -0.079000 0.296000
                                        CHANNELS 3 Yrotation Xrotation Zrotation
                                        JOINT RightHandMiddle2
                                        {
                                            OFFSET -3.724000 0.000000 0.000000
                                            CHANNELS 3 Yrotation Xrotation Zrotation
                                            JOINT RightHandMiddle3
                                            {
                                                OFFSET -2.334000 0.000000 0.000000
                                                CHANNELS 3 Yrotation Xrotation Zrotation
                                                End Site
                                                {
                                                    OFFSET -1.862000 0.000000 0.000000
                                                }
                                            }
                                        }
                                    }
                                }
                                JOINT RightInHandRing
                                {
                                    OFFSET -3.173000 0.507000 -0.122000
                                    CHANNELS 3 Yrotation Xrotation Zrotation
                                    JOINT RightHandRing1
                                    {
                                        OFFSET -4.370000 -0.021000 -0.452000
                                        CHANNELS 3 Yrotation Xrotation Zrotation
                                        JOINT RightHandRing2
                                        {
                                            OFFSET -3.245000 0.000000 0.000000
                                            CHANNELS 3 Yrotation Xrotation Zrotation
                                            JOINT RightHandRing3
                                            {
                                                OFFSET -2.252000 0.000000 0.000000
                                                CHANNELS 3 Yrotation Xrotation Zrotation
                                                End Site
                                                {
                                                    OFFSET -1.751000 0.000000 0.000000
                                                }
                                            }
                                        }
                                    }
                                }
                                JOINT RightInHandPinky
                                {
                                    OFFSET -2.980000 0.443000 -1.133000
                                    CHANNELS 3 Yrotation Xrotation Zrotation
                                    JOINT RightHandPinky1
                                    {
                                        OFFSET -3.904000 -0.021000 -1.028000
                                        CHANNELS 3 Yrotation Xrotation Zrotation
                                        JOINT RightHandPinky2
                                        {
                                            OFFSET -2.599000 0.000000 0.000000
                                            CHANNELS 3 Yrotation Xrotation Zrotation
                                            JOINT RightHandPinky3
                                            {
                                                OFFSET -1.642000 0.000000 0.000000
                                                CHANNELS 3 Yrotation Xrotation Zrotation
                                                End Site
                                                {
                                                    OFFSET -1.551000 0.000000 0.000000
                                                }
                                            }
                                        }
                                    }
                                }
                            }
                        }
                    }
                }
                JOINT LeftShoulder
                {
                    OFFSET 2.696000 12.402000 0.000000
                    CHANNELS 3 Yrotation Xrotation Zrotation
                    JOINT LeftArm
                    {
                        OFFSET 12.804000 0.000000 0.000000
                        CHANNELS 3 Yrotation Xrotation Zrotation
                        JOINT LeftForeArm
                        {
                            OFFSET 21.000000 0.000000 0.000000
                            CHANNELS 3 Yrotation Xrotation Zrotation
                            JOINT LeftHand
                            {
                                OFFSET 23.000000 0.000000 0.000000
                                CHANNELS 3 Yrotation Xrotation Zrotation
                                JOINT LeftHandThumb1
                                {
                                    OFFSET 1.737000 -0.434000 2.258000
                                    CHANNELS 3 Yrotation Xrotation Zrotation
                                    JOINT LeftHandThumb2
                                    {
                                        OFFSET 3.472000 0.000000 0.000000
                                        CHANNELS 3 Yrotation Xrotation Zrotation
                                        JOINT LeftHandThumb3
                                        {
                                            OFFSET 2.412000 0.000000 0.000000
                                            CHANNELS 3 Yrotation Xrotation Zrotation
                                            End Site
                                            {
                                                OFFSET 2.275000 0.000000 0.000000
                                            }
                                        }
                                    }
                                }
                                JOINT LeftInHandIndex
                                {
                                    OFFSET 3.039000 0.479000 1.865000
                                    CHANNELS 3 Yrotation Xrotation Zrotation
                                    JOINT LeftHandIndex1
                                    {
                                        OFFSET 4.919000 -0.086000 0.942000
                                        CHANNELS 3 Yrotation Xrotation Zrotation
                                        JOINT LeftHandIndex2
                                        {
                                            OFFSET 3.413000 0.000000 0.000000
                                            CHANNELS 3 Yrotation Xrotation Zrotation
                                            JOINT LeftHandIndex3
                                            {
                                                OFFSET 1.935000 0.000000 0.000000
                                                CHANNELS 3 Yrotation Xrotation Zrotation
                                                End Site
                                                {
                                                    OFFSET 1.702000 0.000000 0.000000
                                                }
                                            }
                                        }
                                    }
                                }
                                JOINT LeftInHandMiddle
                                {
                                    OFFSET 3.189000 0.488000 0.714000
                                    CHANNELS 3 Yrotation Xrotation Zrotation
                                    JOINT LeftHandMiddle1
                                    {
                                        OFFSET 4.879000 -0.079000 0.296000
                                        CHANNELS 3 Yrotation Xrotation Zrotation
                                        JOINT LeftHandMiddle2
                                        {
                                            OFFSET 3.724000 0.000000 0.000000
                                            CHANNELS 3 Yrotation Xrotation Zrotation
                                            JOINT LeftHandMiddle3
                                            {
                                                OFFSET 2.334000 0.000000 0.000000
                                                CHANNELS 3 Yrotation Xrotation Zrotation
                                                End Site
                                                {
                                                    OFFSET 1.862000 0.000000 0.000000
                                                }
                                            }
                                        }
                                    }
                                }
                                JOINT LeftInHandRing
                                {
                                    OFFSET 3.173000 0.507000 -0.122000
                                    CHANNELS 3 Yrotation Xrotation Zrotation
                                    JOINT LeftHandRing1
                                    {
                                        OFFSET 4.370000 -0.021000 -0.452000
                                        CHANNELS 3 Yrotation Xrotation Zrotation
                                        JOINT LeftHandRing2
                                        {
                                            OFFSET 3.245000 0.000000 0.000000
                                            CHANNELS 3 Yrotation Xrotation Zrotation
                                            JOINT LeftHandRing3
                                            {
                                                OFFSET 2.252000 0.000000 0.000000
                                                CHANNELS 3 Yrotation Xrotation Zrotation
                                                End Site
                                                {
                                                    OFFSET 1.751000 0.000000 0.000000
                                                }
                                            }
                                        }
                                    }
                                }
                                JOINT LeftInHandPinky
                                {
                                    OFFSET 2.980000 0.443000 -1.133000
                                    CHANNELS 3 Yrotation Xrotation Zrotation
                                    JOINT LeftHandPinky1
                                    {
                                        OFFSET 3.904000 -0.021000 -1.028000
                                        CHANNELS 3 Yrotation Xrotation Zrotation
                                        JOINT LeftHandPinky2
                                        {
                                            OFFSET 2.599000 0.000000 0.000000
                                            CHANNELS 3 Yrotation Xrotation Zrotation
                                            JOINT LeftHandPinky3
                                            {
                                                OFFSET 1.642000 0.000000 0.000000
                                                CHANNELS 3 Yrotation Xrotation Zrotation
                                                End Site
                                                {
                                                    OFFSET 1.551000 0.000000 0.000000
                                                }
                                            }
                                        }
                                    }
                                }
                            }
                        }
                    }
                }
            }
        }
    }
}
MOTION
Frames: 4
Frame Time: 0.016667
203.074020 85.717331 -19.823643 55.702827 12.359515 23.064129 157.750443 -161.500351 174.172440 175.054672 149.331192 -168.342758 163.197556 174.973114 172.119766 171.509445 -142.983994 169.431580 26.575151 18.520399 10.248282 154.373672 -178.925629 170.033508 0.980778 -2.441426 0.386230 0.987111 -2.369839 0.701798 4.696179 -1.776952 0.759406 0.005478 -8.365363 -2.510052 0.030018 -9.747993 -2.618275 14.760945 -6.409497 -3.413841 179.233154 -166.946960 -177.064743 0.143964 -20.155806 61.571404 55.291451 -23.229553 58.298431 3.152048 41.429291 -22.517483 43.477409 -0.000024 12.839273 176.995316 179.999985 -160.741119 0.755723 0.000000 -0.000003 180.000000 -180.000000 180.000000 15.000049 -0.000005 22.983458 180.000000 -179.999985 -161.195358 0.000001 0.000007 13.163306 180.000000 -180.000000 -180.000000 0.000010 0.000003 28.287096 0.000001 -0.000009 34.104549 180.000000 -180.000000 -157.286423 180.000000 -180.000000 180.000000 170.000015 -179.999985 -152.110260 179.999985 180.000000 -148.689804 0.000008 0.000006 20.852537 180.000000 -180.000000 180.000000 160.000061 -179.999985 -155.133041 180.000000 179.999985 -142.699570 180.000000 -179.999985 -155.157928 1.889543 -0.971497 7.289675 178.130920 -142.253693 121.356056 110.851974 -162.650543 135.917938 21.529861 -27.996881 -78.894661 136.522598 -179.999985 167.160721 3.004681 0.000008 -19.258894 0.755723 0.000000 -0.000003 0.000005 -0.000002 0.000002 164.999954 -179.999985 157.016541 0.000002 -0.000003 -18.804642 180.000000 179.999985 166.836685 0.000005 -0.000002 0.000002 179.999985 179.999985 151.712906 180.000000 -179.999985 145.895447 0.000000 -0.000002 -22.713579 0.000005 -0.000002 0.000002 9.999979 -0.000006 -27.889727 0.000007 0.000000 -31.310192 179.999985 179.999985 159.147461 0.000005 -0.000002 0.000002 19.999945 -0.000026 -24.866964 0.000004 0.000009 -37.300442 0.000001 -0.000004 -24.842075
201.490829 87.442078 -17.203968 67.975990 5.609447 21.614294 156.478760 -167.691101 172.864609 170.036392 152.730331 -170.834991 164.358414 168.391190 173.455475 173.618408 -148.321228 165.708603 31.343622 17.322556 10.413905 153.284348 -179.203537 171.816269 0.723473 -2.298460 0.540424 0.723461 -2.257601 0.919193 3.441451 -1.744010 1.060949 0.002766 -7.723294 -2.819978 0.021162 -9.008507 -2.934738 13.068824 -5.959715 -3.269319 177.228317 -167.427765 -177.911285 175.178329 -160.621735 -119.855843 58.749367 -28.129566 66.680016 179.631348 137.981033 157.064255 43.477409 -0.000024 12.839273 176.995316 179.999985 -160.741119 0.755723 0.000000 -0.000003 180.000000 -180.000000 180.000000 15.000049 -0.000005 22.983458 180.000000 -179.999985 -161.195358 0.000001 0.000007 13.163306 180.000000 -180.000000 -180.000000 0.000010 0.000003 28.287096 0.000001 -0.000009 34.104549 180.000000 -180.000000 -157.286423 180.000000 -180.000000 180.000000 170.000015 -179.999985 -152.110260 179.999985 180.000000 -148.689804 0.000008 0.000006 20.852537 180.000000 -180.000000 180.000000 160.000061 -179.999985 -155.133041 180.000000 179.999985 -142.699570 180.000000 -179.999985 -155.157928 179.323547 -178.899841 -171.744690 176.697708 -139.526810 121.692810 106.340302 -160.298798 137.114594 23.526970 -33.810070 -84.734886 136.522598 -179.999985 167.160721 3.004681 0.000008 -19.258894 0.755723 0.000000 -0.000003 0.000005 -0.000002 0.000002 164.999954 -179.999985 157.016541 0.000002 -0.000003 -18.804642 180.000000 179.999985 166.836685 0.000005 -0.000002 0.000002 179.999985 179.999985 151.712906 180.000000 -179.999985 145.895447 0.000000 -0.000002 -22.713579 0.000005 -0.000002 0.000002 9.999979 -0.000006 -27.889727 0.000007 0.000000 -31.310192 179.999985 179.999985 159.147461 0.000005 -0.000002 0.000002 19.999945 -0.000026 -24.866964 0.000004 0.000009 -37.300442 0.000001 -0.000004 -24.842075
200.087601 88.495049 -14.566280 78.458221 0.540857 19.782164 156.931488 -172.876221 172.521179 166.738007 155.752579 -173.114990 165.654999 162.881470 175.457809 174.703293 -152.616592 163.327957 36.052731 16.769527 11.320113 156.764481 -178.519821 173.338058 0.595639 -2.217057 0.538176 0.594898 -2.189035 0.907058 2.838408 -1.700368 1.066557 179.999969 -172.702393 177.221893 0.011909 -8.514915 -2.886750 13.717622 -5.603251 -3.227091 176.158081 -168.502213 -178.383011 171.010513 -161.199631 -120.472527 60.484295 -31.585579 73.084801 179.275909 137.809525 160.336594 43.477409 -0.000024 12.839273 176.995316 179.999985 -160.741119 0.755723 0.000000 -0.000003 180.000000 -180.000000 180.000000 15.000049 -0.000005 22.983458 180.000000 -179.999985 -161.195358 0.000001 0.000007 13.163306 180.000000 -180.000000 -180.000000 0.000010 0.000003 28.287096 0.000001 -0.000009 34.104549 180.000000 -180.000000 -157.286423 180.000000 -180.000000 180.000000 170.000015 -179.999985 -152.110260 179.999985 180.000000 -148.689804 0.000008 0.000006 20.852537 180.000000 -180.000000 180.000000 160.000061 -179.999985 -155.133041 180.000000 179.999985 -142.699570 180.000000 -179.999985 -155.157928 177.644394 -178.858658 -171.477188 173.114914 -138.014923 122.782570 104.106537 -157.856003 136.727997 24.199591 -38.031704 -87.098022 136.522598 -179.999985 167.160721 3.004681 0.000008 -19.258894 0.755723 0.000000 -0.000003 0.000005 -0.000002 0.000002 164.999954 -179.999985 157.016541 0.000002 -0.000003 -18.804642 180.000000 179.999985 166.836685 0.000005 -0.000002 0.000002 179.999985 179.999985 151.712906 180.000000 -179.999985 145.895447 0.000000 -0.000002 -22.713579 0.000005 -0.000002 0.000002 9.999979 -0.000006 -27.889727 0.000007 0.000000 -31.310192 179.999985 179.999985 159.147461 0.000005 -0.000002 0.000002 19.999945 -0.000026 -24.866964 0.000004 0.000009 -37.300442 0.000001 -0.000004 -24.842075
198.747070 89.335617 -11.960832 89.114441 -3.622678 17.497513 157.193207 -177.459122 173.381500 166.761963 158.212036 -175.173492 166.805374 159.369293 178.299759 176.675842 -156.285370 161.743332 37.274406 17.656033 11.749168 160.902985 -177.598053 175.172241 0.471437 -2.122192 0.451841 0.472311 -2.098487 0.782709 2.272329 -1.614060 0.946619 0.003334 -7.072361 -2.883380 0.009476 -8.244753 -2.993316 13.015728 -5.362747 -3.146777 175.917862 -169.678940 -178.696579 168.207977 -162.644394 -120.471329 61.442551 -33.806671 77.126389 178.560562 137.458664 161.338318 43.477409 -0.000024 12.839273 176.995316 179.999985 -160.741119 0.755723 0.000000 -0.000003 180.000000 -180.000000 180.000000 15.000049 -0.000005 22.983458 180.000000 -179.999985 -161.195358 0.000001 0.000007 13.163306 180.000000 -180.000000 -180.000000 0.000010 0.000003 28.287096 0.000001 -0.000009 34.104549 180.000000 -180.000000 -157.286423 180.000000 -180.000000 180.000000 170.000015 -179.999985 -152.110260 179.999985 180.000000 -148.689804 0.000008 0.000006 20.852537 180.000000 -180.000000 180.000000 160.000061 -179.999985 -155.133041 180.000000 179.999985 -142.699570 180.000000 -179.999985 -155.157928 178.097900 -178.522430 -171.781998 166.387909 -137.732758 124.450989 101.644913 -155.564041 137.841461 26.149128 -41.431652 -89.983376 136.522598 -179.999985 167.160721 3.004681 0.000008 -19.258894 0.755723 0.000000 -0.000003 0.000005 -0.000002 0.000002 164.999954 -179.999985 157.016541 0.000002 -0.000003 -18.804642 180.000000 179.999985 166.836685 0.000005 -0.000002 0.000002 179.999985 179.999985 151.712906 180.000000 -179.999985 145.895447 0.000000 -0.000002 -22.713579 0.000005 -0.000002 0.000002 9.999979 -0.000006 -27.889727 0.000007 0.000000 -31.310192 179.999985 179.999985 159.147461 0.000005 -0.000002 0.000002 19.999945 -0.000026 -24.866964 0.000004 0.000009 -37.300442 0.000001 -0.000004 -24.842075
